# xmcd
#
# Track frame offsets:
#	150
#	20015
#	39962
#	53437
#	72557
#	91922
#	107679
#	131360
#	147375
#	164985
#	179447
#	198930
#	213859
#	227457
#	250342
#	268562
#	285185
#	306750
#
# Disc length: 4321
#
# Revision: 1
# Processed by: cddbd v1.5.1PL0 Copyright (c) Steve Scherf et al.
# Submitted via: CDex 1.51
# Normalized: r0:TDELIM( - )
#
DISCID=fa10df12
DTITLE=Various Artist - Crystal Collection
DYEAR=1997
DGENRE=New Age
TTITLE0=93-D - Garin Inna Namin
TTITLE1=Gregor Theelen - The Sequel
TTITLE2=Corciolli - Lumen Naturae
TTITLE3=Aeoliah - The Joy of Innocence
TTITLE4=Matthew Doyle - Lightning Man
TTITLE5=Susanna Thomas - Angels of the Sea
TTITLE6=Mike Rowland - Crystal Angel
TTITLE7=Simon Cooper - Quiet Time
TTITLE8=Chris Glassfield - Empty Shores
TTITLE9=Medwyn Goodall - Viscacha
TTITLE10=Daniele Garella - Waves
TTITLE11=Ensemble Tbilisi - Shen Khar Venachi
TTITLE12=Popov - Rassvet
TTITLE13=Tandy - Ingoma
TTITLE14=Medwyn Goodall - Zulu
TTITLE15=Native American Songs - Stomp Dance
TTITLE16=Henri Seroka - Painted Skies
TTITLE17=Ambient Natives - The Sacred Ones
EXTD=YEAR: 1997
EXTT0=
EXTT1=
EXTT2=
EXTT3=
EXTT4=
EXTT5=
EXTT6=
EXTT7=
EXTT8=
EXTT9=
EXTT10=
EXTT11=
EXTT12=
EXTT13=
EXTT14=
EXTT15=
EXTT16=
EXTT17=
PLAYORDER=
